<?xml version="1.0" encoding="utf-8"?>
<!-- Generator: Adobe Illustrator 25.2.3, SVG Export Plug-In . SVG Version: 6.00 Build 0)  -->
<svg version="1.1" id="Layer_1" xmlns="http://www.w3.org/2000/svg" xmlns:xlink="http://www.w3.org/1999/xlink" x="0px" y="0px"
	 viewBox="0 0 800 1000" style="enable-background:new 0 0 800 1000;" xml:space="preserve">
<style type="text/css">
	.st0{fill:none;stroke:#CCCBCB;stroke-linecap:round;stroke-linejoin:round;stroke-miterlimit:10;}
	.st1{fill:#979797;}
	.st2{fill:none;stroke:#414141;stroke-width:4;stroke-linecap:round;stroke-linejoin:round;stroke-miterlimit:10;}
	.st3{fill:#FFFFFF;stroke:#414141;stroke-width:4;stroke-linecap:round;stroke-linejoin:round;stroke-miterlimit:10;}
	.st4{fill:#59ADDF;stroke:#414141;stroke-width:4;stroke-linejoin:round;stroke-miterlimit:10;}
	.st5{fill:#B3E3FF;stroke:#404040;stroke-width:4;stroke-linejoin:round;stroke-miterlimit:10;}
	.st6{fill:#404040;}
	.st7{fill:#414141;}
</style>
<path class="st0" d="M129.3,506.6h541.4"/>
<path class="st1" d="M349.1,32.6c2,0,3.2,1.2,3.2,2.9c0,1.1-0.7,2-1.6,2.3c1.2,0.3,1.9,1.4,1.9,2.6c0,1.7-1.3,2.9-3.3,2.9h-3.7V32.6
	H349.1z M348.9,37.3c1.2,0,1.9-0.7,1.9-1.7s-0.7-1.7-2-1.7H347v3.4H348.9z M349.1,41.9c1.2,0,2-0.7,2-1.7s-0.6-1.7-1.9-1.7h-2.1v3.4
	H349.1z"/>
<path class="st1" d="M361.6,41.2c-0.4,1.3-1.6,2.3-3.2,2.3c-1.9,0-3.6-1.4-3.6-3.9c0-2.3,1.6-3.8,3.4-3.8c2.2,0,3.5,1.5,3.5,3.8
	c0,0.2,0,0.4,0,0.5h-5.4c0,1.3,1,2.2,2.2,2.2s1.8-0.6,2-1.5L361.6,41.2z M360.2,38.9c0-1-0.7-1.8-2-1.8c-1.2,0-1.9,0.9-2,1.8H360.2z
	"/>
<path class="st1" d="M366.1,37.3v5.9h-1.5v-5.9h-1.3V36h1.3v-1.2c0-1.6,1.1-2.5,2.4-2.5c0.5,0,0.8,0.1,0.8,0.1v1.3
	c-0.1,0-0.3-0.1-0.6-0.1c-0.5,0-1.1,0.2-1.1,1.2V36h1.7v1.3H366.1z"/>
<path class="st1" d="M376.6,39.6c0,2.2-1.5,3.8-3.7,3.8s-3.7-1.6-3.7-3.8s1.5-3.8,3.7-3.8S376.6,37.4,376.6,39.6z M375.2,39.6
	c0-1.7-1-2.6-2.2-2.6s-2.2,0.9-2.2,2.6c0,1.7,1,2.6,2.2,2.6S375.2,41.3,375.2,39.6z"/>
<path class="st1" d="M383.1,37.4c-0.2,0-0.4,0-0.6,0c-1.2,0-2,0.6-2,2.2v3.6h-1.4V36h1.4v1.3c0.5-1.1,1.4-1.4,2.2-1.4
	c0.2,0,0.4,0,0.5,0v1.5H383.1z"/>
<path class="st1" d="M391.6,41.2c-0.4,1.3-1.6,2.3-3.2,2.3c-1.9,0-3.6-1.4-3.6-3.9c0-2.3,1.6-3.8,3.4-3.8c2.2,0,3.5,1.5,3.5,3.8
	c0,0.2,0,0.4,0,0.5h-5.4c0,1.3,1,2.2,2.2,2.2s1.8-0.6,2-1.5L391.6,41.2z M390.2,38.9c0-1-0.7-1.8-2-1.8c-1.2,0-1.9,0.9-2,1.8H390.2z
	"/>
<path class="st1" d="M398.7,46.1V36h1.4v1.1c0.4-0.7,1.2-1.3,2.4-1.3c2.2,0,3.3,1.7,3.3,3.8s-1.2,3.8-3.4,3.8
	c-1.1,0-1.9-0.5-2.3-1.2V46h-1.4V46.1z M402.2,37.1c-1.3,0-2.1,1.1-2.1,2.5c0,1.5,0.9,2.5,2.1,2.5c1.3,0,2.1-1.1,2.1-2.5
	C404.4,38.2,403.5,37.1,402.2,37.1z"/>
<path class="st1" d="M410.9,43.5c-1.7,0-2.7-1.3-2.7-2.9V36h1.4v4.3c0,1,0.5,1.9,1.6,1.9s1.7-0.8,1.7-1.8V36h1.4v5.9
	c0,0.6,0,1.1,0.1,1.3h-1.3c0-0.2-0.1-0.6-0.1-0.9C412.6,43.1,411.7,43.5,410.9,43.5z"/>
<path class="st1" d="M418.1,40.9c0.1,0.8,0.7,1.4,1.7,1.4c0.8,0,1.2-0.5,1.2-1s-0.3-0.8-0.9-0.9l-1.2-0.3c-1.1-0.2-1.8-1-1.8-2
	c0-1.2,1.2-2.3,2.6-2.3c2,0,2.6,1.3,2.7,1.9l-1.2,0.5c-0.1-0.4-0.4-1.2-1.5-1.2c-0.7,0-1.2,0.5-1.2,1c0,0.4,0.3,0.8,0.8,0.9l1.2,0.3
	c1.3,0.3,2,1.1,2,2.1s-0.9,2.2-2.6,2.2c-2,0-2.8-1.3-2.9-2.1L418.1,40.9z"/>
<path class="st1" d="M426.5,43.2H425V32.4h1.4v4.5c0.5-0.8,1.4-1,2.2-1c1.7,0,2.6,1.2,2.6,2.8v4.6h-1.4V39c0-1-0.4-1.8-1.7-1.8
	c-1.1,0-1.7,0.8-1.7,1.9v4.1H426.5z"/>
<path class="st1" d="M434.9,32.3c0.6,0,1,0.5,1,1c0,0.6-0.5,1-1,1c-0.6,0-1-0.5-1-1C433.9,32.7,434.4,32.3,434.9,32.3z M434.2,43.2
	V36h1.4v7.2H434.2z"/>
<path class="st1" d="M440.2,43.2h-1.4V36h1.4v1c0.5-0.9,1.4-1.2,2.2-1.2c1.7,0,2.6,1.2,2.6,2.8v4.6h-1.4v-4.3c0-1-0.4-1.8-1.7-1.8
	c-1.1,0-1.7,0.9-1.7,2V43.2z"/>
<path class="st1" d="M448.8,43.3c0.1,1,0.9,1.8,2,1.8c1.5,0,2.2-0.8,2.2-2.3v-1c-0.3,0.7-1.1,1.2-2.2,1.2c-1.9,0-3.3-1.5-3.3-3.5
	s1.3-3.5,3.3-3.5c1.1,0,1.9,0.4,2.2,1.1v-1h1.4v6.7c0,1.8-0.9,3.6-3.6,3.6c-1.8,0-3.2-1.1-3.3-2.7L448.8,43.3z M453,39.4
	c0-1.4-0.8-2.3-2.1-2.3c-1.2,0-2.1,0.9-2.1,2.3c0,1.4,0.8,2.3,2.1,2.3S453,40.8,453,39.4z"/>
<path class="st1" d="M357.7,614.1H353l-1.1,3h-1.6l4.2-10.6h1.7l4.2,10.6h-1.6L357.7,614.1z M353.5,612.8h3.7l-1.8-4.8L353.5,612.8z
	"/>
<path class="st1" d="M364.4,611.2v5.9H363v-5.9h-1.3v-1.3h1.3v-1.2c0-1.6,1.1-2.5,2.4-2.5c0.5,0,0.8,0.1,0.8,0.1v1.3
	c-0.1,0-0.3-0.1-0.6-0.1c-0.5,0-1.1,0.2-1.1,1.2v1.1h1.7v1.3h-1.8V611.2z"/>
<path class="st1" d="M370.3,609.9h1.6v1.3h-1.6v3.8c0,0.7,0.3,1,1,1c0.2,0,0.4,0,0.6-0.1v1.2c-0.1,0-0.5,0.1-1,0.1
	c-1.2,0-2-0.8-2-2.1v-4h-1.4v-1.3h0.4c0.8,0,1.1-0.5,1.1-1.1v-1.2h1.3V609.9z"/>
<path class="st1" d="M380.7,615c-0.4,1.3-1.6,2.3-3.2,2.3c-1.9,0-3.6-1.4-3.6-3.9c0-2.3,1.6-3.8,3.4-3.8c2.2,0,3.5,1.5,3.5,3.8
	c0,0.2,0,0.4,0,0.5h-5.4c0,1.3,1,2.2,2.2,2.2s1.8-0.6,2-1.5L380.7,615z M379.3,612.8c0-1-0.7-1.8-2-1.8c-1.2,0-1.9,0.9-2,1.8H379.3z
	"/>
<path class="st1" d="M387.3,611.3c-0.2,0-0.4,0-0.6,0c-1.2,0-2,0.6-2,2.2v3.6h-1.4v-7.2h1.4v1.3c0.5-1.1,1.4-1.4,2.2-1.4
	c0.2,0,0.4,0,0.5,0v1.5H387.3z"/>
<path class="st1" d="M394.1,620v-10.1h1.4v1.1c0.4-0.7,1.2-1.3,2.4-1.3c2.2,0,3.3,1.7,3.3,3.8s-1.2,3.8-3.4,3.8
	c-1.1,0-1.9-0.5-2.3-1.2v3.8h-1.4V620z M397.6,611c-1.3,0-2.1,1.1-2.1,2.5c0,1.5,0.9,2.5,2.1,2.5c1.3,0,2.1-1.1,2.1-2.5
	C399.7,612,398.9,611,397.6,611z"/>
<path class="st1" d="M406.3,617.3c-1.7,0-2.7-1.3-2.7-2.9v-4.5h1.4v4.3c0,1,0.5,1.9,1.6,1.9s1.7-0.8,1.7-1.8V610h1.4v5.9
	c0,0.6,0,1.1,0.1,1.3h-1.3c0-0.2-0.1-0.6-0.1-0.9C408,617,407.1,617.3,406.3,617.3z"/>
<path class="st1" d="M413.5,614.8c0.1,0.8,0.7,1.4,1.7,1.4c0.8,0,1.2-0.5,1.2-1s-0.3-0.8-0.9-0.9l-1.2-0.3c-1.1-0.2-1.8-1-1.8-2
	c0-1.2,1.2-2.3,2.6-2.3c2,0,2.6,1.3,2.7,1.9l-1.2,0.5c-0.1-0.4-0.4-1.2-1.5-1.2c-0.7,0-1.2,0.5-1.2,1c0,0.4,0.3,0.8,0.8,0.9l1.2,0.3
	c1.3,0.3,2,1.1,2,2.1s-0.9,2.2-2.6,2.2c-2,0-2.8-1.3-2.9-2.1L413.5,614.8z"/>
<path class="st1" d="M421.8,617.1h-1.4v-10.9h1.4v4.5c0.5-0.8,1.4-1,2.2-1c1.7,0,2.6,1.2,2.6,2.8v4.6h-1.4v-4.3c0-1-0.4-1.8-1.7-1.8
	c-1.1,0-1.7,0.8-1.7,1.9V617.1z"/>
<path class="st1" d="M430.3,606.1c0.6,0,1,0.5,1,1c0,0.6-0.5,1-1,1c-0.6,0-1-0.5-1-1S429.7,606.1,430.3,606.1z M429.6,617.1v-7.2
	h1.4v7.2H429.6z"/>
<path class="st1" d="M435.5,617.1h-1.4v-7.2h1.4v1c0.5-0.9,1.4-1.2,2.2-1.2c1.7,0,2.6,1.2,2.6,2.8v4.6h-1.4v-4.3
	c0-1-0.4-1.8-1.7-1.8c-1.1,0-1.7,0.9-1.7,2V617.1z"/>
<path class="st1" d="M444.1,617.2c0.1,1,0.9,1.8,2,1.8c1.5,0,2.2-0.8,2.2-2.3v-1c-0.3,0.7-1.1,1.2-2.2,1.2c-1.9,0-3.3-1.5-3.3-3.5
	s1.3-3.5,3.3-3.5c1.1,0,1.9,0.4,2.2,1.1v-1h1.4v6.7c0,1.8-0.9,3.6-3.6,3.6c-1.8,0-3.2-1.1-3.3-2.7L444.1,617.2z M448.4,613.3
	c0-1.4-0.8-2.3-2.1-2.3c-1.2,0-2.1,0.9-2.1,2.3c0,1.4,0.8,2.3,2.1,2.3C447.5,615.6,448.4,614.7,448.4,613.3z"/>
<path class="st2" d="M541.2,785.8v-23.5 M552.1,777.1l-10.9,10.8l-10.8-10.8"/>
<path class="st2" d="M540.7,871.2v23.5 M529.8,879.9l10.9-10.9l10.9,10.9"/>
<path class="st2" d="M186.3,828.4h375.4"/>
<circle class="st3" cx="373.8" cy="828.4" r="21"/>
<circle class="st3" cx="290.6" cy="828.4" r="21"/>
<circle class="st3" cx="207.3" cy="828.4" r="21"/>
<circle class="st3" cx="457.4" cy="828.4" r="21"/>
<circle class="st4" cx="540.7" cy="828.4" r="21"/>
<path class="st2" d="M186.3,256.8h375.4"/>
<circle class="st3" cx="373.8" cy="256.8" r="21"/>
<circle class="st3" cx="290.6" cy="256.8" r="21"/>
<circle class="st3" cx="207.3" cy="256.8" r="21"/>
<circle class="st3" cx="457.4" cy="256.8" r="21"/>
<circle class="st4" cx="540.7" cy="256.8" r="21"/>
<path class="st2" d="M373.8,211.9v-23.5 M384.7,203.2L373.8,214L363,203.2"/>
<path class="st2" d="M541.3,299.6v23.5 M530.4,308.3l10.9-10.8l10.8,10.8"/>
<g>
	<path class="st5" d="M474.2,346.1h134.2v50H474.2V346.1z"/>
	<g>
		<path class="st6" d="M505.1,377.2v-10.7h1.5v9.3h5.1v1.4L505.1,377.2L505.1,377.2z"/>
		<path class="st6" d="M520.5,373.6c0,2.2-1.5,3.9-3.7,3.9s-3.7-1.6-3.7-3.9c0-2.2,1.5-3.8,3.7-3.8S520.5,371.4,520.5,373.6z
			 M519.1,373.6c0-1.7-1.1-2.6-2.3-2.6s-2.3,0.9-2.3,2.6s1.1,2.6,2.3,2.6S519.1,375.3,519.1,373.6z"/>
		<path class="st6" d="M523.7,373.6c0,1.7,1,2.5,2.2,2.5c1.4,0,1.9-0.9,2-1.5l1.3,0.5c-0.3,1-1.4,2.3-3.3,2.3
			c-2.1,0-3.7-1.7-3.7-3.9c0-2.3,1.6-3.8,3.6-3.8c1.9,0,2.9,1.2,3.2,2.3l-1.3,0.5c-0.2-0.7-0.7-1.5-1.9-1.5
			C524.8,371.1,523.7,371.9,523.7,373.6z"/>
		<path class="st6" d="M533.1,373.1l2-0.3c0.4-0.1,0.6-0.3,0.6-0.5c0-0.7-0.5-1.3-1.6-1.3c-1,0-1.6,0.6-1.6,1.5l-1.4-0.3
			c0.2-1.4,1.4-2.4,3-2.4c2.2,0,3,1.2,3,2.7v3.6c0,0.6,0.1,1,0.1,1.2h-1.4c0-0.2-0.1-0.5-0.1-1c-0.3,0.5-1,1.2-2.3,1.2
			c-1.5,0-2.4-1-2.4-2.2C530.9,374,531.9,373.3,533.1,373.1z M535.6,374.1v-0.3l-2.2,0.3c-0.6,0.1-1.1,0.4-1.1,1.1
			c0,0.5,0.5,1.1,1.2,1.1C534.7,376.3,535.6,375.7,535.6,374.1z"/>
		<path class="st6" d="M539.8,377.2v-10.9h1.4v10.9H539.8z"/>
	</g>
	<g>
		<path class="st6" d="M549.5,377.1v-7.3h1.4v1c0.5-0.8,1.4-1.2,2.2-1.2c0.9,0,1.8,0.4,2.2,1.4c0.6-1,1.5-1.4,2.4-1.4
			c1.3,0,2.5,0.9,2.5,2.8v4.7h-1.4v-4.6c0-0.9-0.5-1.7-1.5-1.7s-1.7,0.8-1.7,1.8v4.4h-1.4v-4.6c0-0.9-0.5-1.7-1.5-1.7
			s-1.7,0.8-1.7,1.8v4.4h-1.5V377.1z"/>
		<g>
			<path class="st7" d="M568,376.1c-0.5,0.4-0.9,0.7-1.3,0.8c-0.4,0.2-0.9,0.2-1.4,0.2c-0.8,0-1.4-0.2-1.8-0.6
				c-0.4-0.4-0.6-0.9-0.6-1.5c0-0.4,0.1-0.7,0.2-1c0.2-0.3,0.4-0.5,0.6-0.7c0.3-0.2,0.6-0.3,0.9-0.4c0.2-0.1,0.6-0.1,1.1-0.2
				c1-0.1,1.7-0.3,2.2-0.4c0-0.2,0-0.3,0-0.3c0-0.5-0.1-0.9-0.3-1.1c-0.3-0.3-0.8-0.4-1.4-0.4s-1,0.1-1.3,0.3s-0.5,0.6-0.6,1.1
				l-1.2-0.2c0.1-0.5,0.3-0.9,0.5-1.2c0.3-0.3,0.6-0.6,1.1-0.7c0.5-0.2,1-0.3,1.6-0.3s1.1,0.1,1.5,0.2s0.7,0.3,0.9,0.6
				c0.2,0.2,0.3,0.5,0.4,0.8c0,0.2,0.1,0.6,0.1,1.1v1.6c0,1.1,0,1.9,0.1,2.2c0.1,0.3,0.2,0.6,0.3,0.9h-1.3
				C568.1,376.8,568,376.5,568,376.1z M567.9,373.4c-0.4,0.2-1.1,0.3-2,0.5c-0.5,0.1-0.9,0.2-1.1,0.2s-0.4,0.2-0.5,0.4
				s-0.2,0.4-0.2,0.6c0,0.3,0.1,0.6,0.4,0.8c0.2,0.2,0.6,0.3,1.1,0.3s0.9-0.1,1.3-0.3s0.6-0.5,0.8-0.9c0.1-0.3,0.2-0.7,0.2-1.2
				V373.4L567.9,373.4z"/>
			<path class="st7" d="M571.7,368.4V367h1.2v1.4H571.7z M571.7,377v-7.3h1.2v7.3H571.7z"/>
			<path class="st7" d="M575.5,377v-7.3h1.1v1c0.5-0.8,1.3-1.2,2.3-1.2c0.4,0,0.8,0.1,1.2,0.2c0.4,0.2,0.6,0.4,0.8,0.6
				s0.3,0.6,0.4,0.9c0,0.2,0.1,0.6,0.1,1.2v4.5h-1.2v-4.4c0-0.5,0-0.9-0.1-1.1s-0.3-0.4-0.5-0.6c-0.2-0.1-0.5-0.2-0.9-0.2
				c-0.5,0-1,0.2-1.4,0.5s-0.6,1-0.6,1.9v4H575.5L575.5,377z"/>
		</g>
	</g>
</g>
<g>
	<path class="st5" d="M474.2,917.7h134.2v50H474.2V917.7z"/>
	<g>
		<path class="st6" d="M505.1,948.8v-10.7h1.5v9.3h5.1v1.4L505.1,948.8L505.1,948.8z"/>
		<path class="st6" d="M520.5,945.2c0,2.2-1.5,3.9-3.7,3.9s-3.7-1.6-3.7-3.9c0-2.2,1.5-3.8,3.7-3.8S520.5,943,520.5,945.2z
			 M519.1,945.2c0-1.7-1.1-2.6-2.3-2.6s-2.3,0.9-2.3,2.6s1.1,2.6,2.3,2.6S519.1,946.9,519.1,945.2z"/>
		<path class="st6" d="M523.7,945.2c0,1.7,1,2.5,2.2,2.5c1.4,0,1.9-0.9,2-1.5l1.3,0.5c-0.3,1-1.4,2.3-3.3,2.3
			c-2.1,0-3.7-1.7-3.7-3.9c0-2.3,1.6-3.8,3.6-3.8c1.9,0,2.9,1.2,3.2,2.3l-1.3,0.5c-0.2-0.7-0.7-1.5-1.9-1.5
			C524.8,942.7,523.7,943.5,523.7,945.2z"/>
		<path class="st6" d="M533.1,944.7l2-0.3c0.4-0.1,0.6-0.3,0.6-0.5c0-0.7-0.5-1.3-1.6-1.3c-1,0-1.6,0.6-1.6,1.5l-1.4-0.3
			c0.2-1.4,1.4-2.4,3-2.4c2.2,0,3,1.2,3,2.7v3.6c0,0.6,0.1,1,0.1,1.2h-1.4c0-0.2-0.1-0.5-0.1-1c-0.3,0.5-1,1.2-2.3,1.2
			c-1.5,0-2.4-1-2.4-2.2C530.9,945.6,531.9,944.9,533.1,944.7z M535.6,945.7v-0.3l-2.2,0.3c-0.6,0.1-1.1,0.4-1.1,1.1
			c0,0.5,0.5,1.1,1.2,1.1C534.7,947.9,535.6,947.3,535.6,945.7z"/>
		<path class="st6" d="M539.8,948.8v-10.9h1.4v10.9H539.8z"/>
	</g>
	<g>
		<path class="st6" d="M549.5,948.7v-7.3h1.4v1c0.5-0.8,1.4-1.2,2.2-1.2c0.9,0,1.8,0.4,2.2,1.4c0.6-1,1.5-1.4,2.4-1.4
			c1.3,0,2.5,0.9,2.5,2.8v4.7h-1.4v-4.6c0-0.9-0.5-1.7-1.5-1.7s-1.7,0.8-1.7,1.8v4.4h-1.4V944c0-0.9-0.5-1.7-1.5-1.7
			s-1.7,0.8-1.7,1.8v4.4h-1.5V948.7z"/>
		<g>
			<path class="st7" d="M568,947.7c-0.5,0.4-0.9,0.7-1.3,0.8c-0.4,0.2-0.9,0.2-1.4,0.2c-0.8,0-1.4-0.2-1.8-0.6
				c-0.4-0.4-0.6-0.9-0.6-1.5c0-0.4,0.1-0.7,0.2-1c0.2-0.3,0.4-0.5,0.6-0.7c0.3-0.2,0.6-0.3,0.9-0.4c0.2-0.1,0.6-0.1,1.1-0.2
				c1-0.1,1.7-0.3,2.2-0.4c0-0.2,0-0.3,0-0.3c0-0.5-0.1-0.9-0.3-1.1c-0.3-0.3-0.8-0.4-1.4-0.4s-1,0.1-1.3,0.3
				c-0.3,0.2-0.5,0.6-0.6,1.1l-1.2-0.2c0.1-0.5,0.3-0.9,0.5-1.2c0.3-0.3,0.6-0.6,1.1-0.7c0.5-0.2,1-0.3,1.6-0.3s1.1,0.1,1.5,0.2
				s0.7,0.3,0.9,0.6c0.2,0.2,0.3,0.5,0.4,0.8c0,0.2,0.1,0.6,0.1,1.1v1.6c0,1.1,0,1.9,0.1,2.2c0.1,0.3,0.2,0.6,0.3,0.9h-1.3
				C568.1,948.4,568,948.1,568,947.7z M567.9,945c-0.4,0.2-1.1,0.3-2,0.5c-0.5,0.1-0.9,0.2-1.1,0.2s-0.4,0.2-0.5,0.4
				c-0.1,0.2-0.2,0.4-0.2,0.6c0,0.3,0.1,0.6,0.4,0.8c0.2,0.2,0.6,0.3,1.1,0.3s0.9-0.1,1.3-0.3s0.6-0.5,0.8-0.9
				c0.1-0.3,0.2-0.7,0.2-1.2V945L567.9,945z"/>
			<path class="st7" d="M571.7,940v-1.4h1.2v1.4H571.7z M571.7,948.6v-7.3h1.2v7.3H571.7z"/>
			<path class="st7" d="M575.5,948.6v-7.3h1.1v1c0.5-0.8,1.3-1.2,2.3-1.2c0.4,0,0.8,0.1,1.2,0.2c0.4,0.2,0.6,0.4,0.8,0.6
				s0.3,0.6,0.4,0.9c0,0.2,0.1,0.6,0.1,1.2v4.5h-1.2v-4.4c0-0.5,0-0.9-0.1-1.1c-0.1-0.2-0.3-0.4-0.5-0.6c-0.2-0.1-0.5-0.2-0.9-0.2
				c-0.5,0-1,0.2-1.4,0.5s-0.6,1-0.6,1.9v4H575.5L575.5,948.6z"/>
		</g>
	</g>
</g>
<g>
	<path class="st5" d="M295,115.1h160.2v50H295V115.1z"/>
	<g>
		<path class="st6" d="M331.9,135.2c2.7,0,5.3,2,5.3,5.5c0,3.6-2.7,5.5-5.3,5.5c-2.7,0-5.3-2-5.3-5.5
			C326.5,137.2,329.2,135.2,331.9,135.2z M331.9,145c2,0,3.8-1.4,3.8-4.2s-1.9-4.2-3.8-4.2c-2,0-3.8,1.4-3.8,4.2
			S329.9,145,331.9,145z M343.8,140.3h-0.6c-1.2,0-2,0.6-2,2.2v3.6h-1.4v-7.2h1.4v1.3c0.5-1.1,1.4-1.4,2.2-1.4h0.5v1.5L343.8,140.3
			L343.8,140.3z M346.8,135.1c0.6,0,1,0.4,1,1s-0.5,1-1,1c-0.6,0-1-0.5-1-1S346.2,135.1,346.8,135.1z M346.1,146.1v-7.2h1.4v7.2
			H346.1z M351.5,146.2c0.1,1,0.9,1.8,2,1.8c1.5,0,2.2-0.8,2.2-2.3v-1c-0.3,0.7-1.1,1.2-2.2,1.2c-1.9,0-3.3-1.5-3.3-3.5
			c0-1.9,1.3-3.5,3.3-3.5c1.1,0,1.9,0.4,2.2,1.1v-1h1.4v6.7c0,1.8-0.9,3.6-3.6,3.6c-1.8,0-3.2-1.1-3.3-2.7
			C350.2,146.6,351.5,146.2,351.5,146.2z M355.7,142.3c0-1.4-0.8-2.3-2.1-2.3c-1.2,0-2.1,0.9-2.1,2.3c0,1.4,0.8,2.3,2.1,2.3
			S355.7,143.7,355.7,142.3z M360.7,135.1c0.6,0,1,0.4,1,1s-0.5,1-1,1c-0.6,0-1-0.5-1-1S360.2,135.1,360.7,135.1z M360.1,146.1v-7.2
			h1.4v7.2H360.1z M366,146.1h-1.4v-7.2h1.4v1c0.5-0.9,1.4-1.2,2.2-1.2c1.7,0,2.6,1.2,2.6,2.9v4.6h-1.4v-4.3c0-1-0.4-1.8-1.7-1.8
			c-1.1,0-1.7,0.9-1.7,2V146.1z M378.4,146.1H377l5.1-10.6h1.4L378.4,146.1z"/>
		<g>
			<path class="st7" d="M391.1,146v-10h2l2.4,7.1c0.2,0.7,0.4,1.2,0.5,1.5c0.1-0.4,0.3-0.9,0.5-1.6l2.4-7h1.8v10h-1.3v-8.4l-2.9,8.4
				h-1.2l-2.9-8.5v8.5H391.1z"/>
			<path class="st7" d="M408.1,145.1c-0.5,0.4-0.9,0.7-1.3,0.8c-0.4,0.2-0.9,0.2-1.4,0.2c-0.8,0-1.4-0.2-1.8-0.6
				c-0.4-0.4-0.6-0.9-0.6-1.5c0-0.4,0.1-0.7,0.2-1c0.2-0.3,0.4-0.5,0.6-0.7c0.3-0.2,0.6-0.3,0.9-0.4c0.2-0.1,0.6-0.1,1.1-0.2
				c1-0.1,1.7-0.3,2.2-0.4c0-0.2,0-0.3,0-0.3c0-0.5-0.1-0.9-0.3-1.1c-0.3-0.3-0.8-0.4-1.4-0.4s-1,0.1-1.3,0.3s-0.5,0.6-0.6,1.1
				l-1.2-0.2c0.1-0.5,0.3-0.9,0.5-1.2c0.3-0.3,0.6-0.6,1.1-0.7c0.5-0.2,1-0.3,1.6-0.3s1.1,0.1,1.5,0.2c0.4,0.1,0.7,0.3,0.9,0.6
				c0.2,0.2,0.3,0.5,0.4,0.8c0,0.2,0.1,0.6,0.1,1.1v1.6c0,1.1,0,1.9,0.1,2.2s0.2,0.6,0.3,0.9h-1.3
				C408.2,145.8,408.1,145.5,408.1,145.1z M408,142.4c-0.4,0.2-1.1,0.3-2,0.5c-0.5,0.1-0.9,0.2-1.1,0.2s-0.4,0.2-0.5,0.4
				s-0.2,0.4-0.2,0.6c0,0.3,0.1,0.6,0.4,0.8c0.2,0.2,0.6,0.3,1.1,0.3s0.9-0.1,1.3-0.3s0.6-0.5,0.8-0.9c0.1-0.3,0.2-0.7,0.2-1.2
				L408,142.4L408,142.4z"/>
			<path class="st7" d="M411.8,137.4V136h1.2v1.4H411.8z M411.8,146v-7.3h1.2v7.3H411.8z"/>
			<path class="st7" d="M415.6,146v-7.3h1.1v1c0.5-0.8,1.3-1.2,2.3-1.2c0.4,0,0.8,0.1,1.2,0.2c0.4,0.2,0.6,0.4,0.8,0.6
				s0.3,0.6,0.4,0.9c0,0.2,0.1,0.6,0.1,1.2v4.5h-1.2v-4.4c0-0.5,0-0.9-0.1-1.1s-0.3-0.4-0.5-0.6c-0.2-0.1-0.5-0.2-0.9-0.2
				c-0.5,0-1,0.2-1.4,0.5s-0.6,1-0.6,1.9v4L415.6,146L415.6,146z"/>
		</g>
	</g>
</g>
<g>
	<path class="st5" d="M460.5,689h160.2v50H460.5V689z"/>
	<g>
		<path class="st6" d="M497.4,709.1c2.7,0,5.3,2,5.3,5.5c0,3.6-2.7,5.5-5.3,5.5c-2.7,0-5.3-2-5.3-5.5
			C492,711.1,494.7,709.1,497.4,709.1z M497.4,718.9c2,0,3.8-1.4,3.8-4.2s-1.9-4.2-3.8-4.2c-2,0-3.8,1.4-3.8,4.2
			S495.4,718.9,497.4,718.9z M509.3,714.2h-0.6c-1.2,0-2,0.6-2,2.2v3.6h-1.4v-7.2h1.4v1.3c0.5-1.1,1.4-1.4,2.2-1.4h0.5v1.5H509.3
			L509.3,714.2z M512.3,709c0.6,0,1,0.4,1,1s-0.5,1-1,1c-0.6,0-1-0.5-1-1S511.7,709,512.3,709z M511.6,720v-7.2h1.4v7.2H511.6z
			 M517,720.1c0.1,1,0.9,1.8,2,1.8c1.5,0,2.2-0.8,2.2-2.3v-1c-0.3,0.7-1.1,1.2-2.2,1.2c-1.9,0-3.3-1.5-3.3-3.5
			c0-1.9,1.3-3.5,3.3-3.5c1.1,0,1.9,0.4,2.2,1.1v-1h1.4v6.7c0,1.8-0.9,3.6-3.6,3.6c-1.8,0-3.2-1.1-3.3-2.7
			C515.7,720.5,517,720.1,517,720.1z M521.2,716.2c0-1.4-0.8-2.3-2.1-2.3c-1.2,0-2.1,0.9-2.1,2.3c0,1.4,0.8,2.3,2.1,2.3
			C520.4,718.5,521.2,717.6,521.2,716.2z M526.2,709c0.6,0,1,0.4,1,1s-0.5,1-1,1c-0.6,0-1-0.5-1-1S525.7,709,526.2,709z M525.6,720
			v-7.2h1.4v7.2H525.6z M531.5,720h-1.4v-7.2h1.4v1c0.5-0.9,1.4-1.2,2.2-1.2c1.7,0,2.6,1.2,2.6,2.9v4.6h-1.4v-4.3
			c0-1-0.4-1.8-1.7-1.8c-1.1,0-1.7,0.9-1.7,2V720z M543.9,720h-1.4l5.1-10.6h1.4L543.9,720z"/>
		<g>
			<path class="st7" d="M556.6,719.9v-10h2l2.4,7.1c0.2,0.7,0.4,1.2,0.5,1.5c0.1-0.4,0.3-0.9,0.5-1.6l2.4-7h1.8v10h-1.3v-8.4
				l-2.9,8.4h-1.2l-2.9-8.5v8.5H556.6z"/>
			<path class="st7" d="M573.6,719c-0.5,0.4-0.9,0.7-1.3,0.8c-0.4,0.2-0.9,0.2-1.4,0.2c-0.8,0-1.4-0.2-1.8-0.6
				c-0.4-0.4-0.6-0.9-0.6-1.5c0-0.4,0.1-0.7,0.2-1c0.2-0.3,0.4-0.5,0.6-0.7c0.3-0.2,0.6-0.3,0.9-0.4c0.2-0.1,0.6-0.1,1.1-0.2
				c1-0.1,1.7-0.3,2.2-0.4c0-0.2,0-0.3,0-0.3c0-0.5-0.1-0.9-0.3-1.1c-0.3-0.3-0.8-0.4-1.4-0.4c-0.6,0-1,0.1-1.3,0.3
				c-0.3,0.2-0.5,0.6-0.6,1.1l-1.2-0.2c0.1-0.5,0.3-0.9,0.5-1.2c0.3-0.3,0.6-0.6,1.1-0.7c0.5-0.2,1-0.3,1.6-0.3s1.1,0.1,1.5,0.2
				c0.4,0.1,0.7,0.3,0.9,0.6c0.2,0.2,0.3,0.5,0.4,0.8c0,0.2,0.1,0.6,0.1,1.1v1.6c0,1.1,0,1.9,0.1,2.2c0.1,0.3,0.2,0.6,0.3,0.9h-1.3
				C573.7,719.7,573.6,719.4,573.6,719z M573.5,716.3c-0.4,0.2-1.1,0.3-2,0.5c-0.5,0.1-0.9,0.2-1.1,0.2c-0.2,0-0.4,0.2-0.5,0.4
				c-0.1,0.2-0.2,0.4-0.2,0.6c0,0.3,0.1,0.6,0.4,0.8c0.2,0.2,0.6,0.3,1.1,0.3s0.9-0.1,1.3-0.3c0.4-0.2,0.6-0.5,0.8-0.9
				c0.1-0.3,0.2-0.7,0.2-1.2L573.5,716.3L573.5,716.3z"/>
			<path class="st7" d="M577.3,711.3v-1.4h1.2v1.4H577.3z M577.3,719.9v-7.3h1.2v7.3H577.3z"/>
			<path class="st7" d="M581.1,719.9v-7.3h1.1v1c0.5-0.8,1.3-1.2,2.3-1.2c0.4,0,0.8,0.1,1.2,0.2c0.4,0.2,0.6,0.4,0.8,0.6
				s0.3,0.6,0.4,0.9c0,0.2,0.1,0.6,0.1,1.2v4.5h-1.2v-4.4c0-0.5,0-0.9-0.1-1.1c-0.1-0.2-0.3-0.4-0.5-0.6c-0.2-0.1-0.5-0.2-0.9-0.2
				c-0.5,0-1,0.2-1.4,0.5c-0.4,0.3-0.6,1-0.6,1.9v4H581.1L581.1,719.9z"/>
		</g>
	</g>
</g>
</svg>
